#tb 0: 1/25
#media_type 0: video
#codec_id 0: rawvideo
#dimensions 0: 1680x832
#sar 0: 0/1
0,          0,          0,        1,  4193280, 0xbd70f1b3
0,          1,          1,        1,  4193280, 0x64e160d5
0,          2,          2,        1,  4193280, 0xd20722ea
0,          3,          3,        1,  4193280, 0xa1d00055
0,          4,          4,        1,  4193280, 0xe3dcb9cd
0,          5,          5,        1,  4193280, 0xcf97b6cf
0,          6,          6,        1,  4193280, 0xd87b73d0
0,          7,          7,        1,  4193280, 0x0f8ee2bc
0,          8,          8,        1,  4193280, 0x76607ca4
